<svg xmlns="http://www.w3.org/2000/svg" viewBox="0 0 272 58">
    <title>Nuvende</title>
    <g fill-rule="evenodd" fill="rgb(0,203,88)">
        <path d=" M 31.073 57.75 L 23.94 57.75 C 23.576 57.75 23.28 57.454 23.28 57.09 L 23.28 50.042 C 23.28 49.678 23.576 49.383 23.94 49.383 L 26.447 49.383 C 28.709 45.129 31.396 40.077 33.658 35.824 C 33.945 35.285 33.893 34.739 33.599 34.186 C 30.613 28.572 27.628 22.956 24.643 17.341 C 24.049 16.224 23.952 15.136 24.523 14.063 C 27.067 9.278 29.187 5.292 31.731 0.507 C 31.922 0.146 32.42 0.175 32.608 0.533 L 33.908 2.972 C 33.992 3.132 34.006 3.312 33.926 3.463 L 33.126 4.965 C 32.856 5.475 32.839 6.027 33.162 6.638 C 37.1 14.04 41.034 21.444 44.97 28.846 C 45.564 29.964 45.66 31.052 45.09 32.124 C 40.615 40.541 36.14 48.957 31.665 57.373 L 31.64 57.42 L 31.64 57.42 C 31.519 57.63 31.299 57.748 31.073 57.75 L 31.073 57.75 L 31.073 57.75 Z  M 1.8 37.706 C 1.207 36.589 1.11 35.501 1.68 34.428 L 11.442 16.069 C 11.633 15.708 12.132 15.737 12.32 16.095 L 13.619 18.534 C 13.704 18.693 13.717 18.874 13.637 19.025 L 12.837 20.527 C 12.567 21.037 12.55 21.589 12.873 22.2 L 16.703 29.396 C 17.291 30.505 17.393 31.601 16.823 32.674 L 13.112 39.652 C 12.825 40.191 12.877 40.737 13.17 41.29 L 17.475 49.383 L 17.476 49.383 L 19.983 49.383 C 20.347 49.383 20.642 49.678 20.642 50.042 L 20.642 57.09 C 20.642 57.454 20.347 57.75 19.983 57.75 L 12.85 57.75 L 12.85 57.75 C 12.623 57.748 12.404 57.63 12.283 57.42 L 12.282 57.42 L 12.258 57.373 L 1.8 37.706 L 1.8 37.706 Z " fill-rule="evenodd" id="path6"/>
        <g id="g8" >
            <path d=" M 160.028 47.659 C 160.15 47.927 160.289 48.189 160.444 48.443 C 160.598 48.696 160.77 48.943 160.956 49.18 C 161.132 49.404 161.317 49.613 161.509 49.807 L 161.545 49.841 C 161.896 50.192 162.276 50.505 162.679 50.774 C 163.082 51.044 163.514 51.275 163.968 51.463 C 164.411 51.647 164.88 51.79 165.367 51.886 C 165.837 51.98 166.324 52.029 166.824 52.029 C 167.324 52.029 167.811 51.98 168.281 51.886 C 168.768 51.79 169.237 51.647 169.68 51.463 C 170.134 51.275 170.565 51.043 170.969 50.774 C 171.376 50.502 171.757 50.189 172.104 49.842 C 172.26 49.685 172.398 49.529 172.543 49.362 C 172.664 49.201 172.856 49.096 173.073 49.096 L 178.23 49.096 C 178.322 49.098 178.415 49.117 178.503 49.158 C 178.833 49.308 178.979 49.698 178.828 50.028 C 178.338 51.104 177.706 52.103 176.958 53.001 C 176.205 53.905 175.333 54.706 174.368 55.38 C 173.279 56.141 172.072 56.741 170.781 57.146 C 169.531 57.538 168.201 57.75 166.824 57.75 C 165.042 57.75 163.339 57.394 161.783 56.75 C 160.185 56.088 158.745 55.121 157.537 53.922 L 157.499 53.887 C 156.286 52.674 155.306 51.221 154.636 49.602 C 153.992 48.047 153.636 46.344 153.636 44.562 C 153.636 40.92 155.113 37.622 157.499 35.237 C 158.716 34.022 160.169 33.043 161.783 32.374 C 163.339 31.73 165.042 31.374 166.824 31.374 C 168.606 31.374 170.309 31.73 171.865 32.374 C 173.479 33.042 174.931 34.021 176.146 35.236 L 176.149 35.239 C 177.364 36.454 178.343 37.907 179.012 39.52 C 179.656 41.076 180.012 42.78 180.012 44.562 C 180.012 44.719 180.007 44.91 179.997 45.13 C 179.989 45.35 179.977 45.539 179.963 45.699 L 179.909 46.195 C 179.895 46.547 179.606 46.828 179.25 46.828 L 159.707 46.828 C 159.797 47.111 159.904 47.389 160.027 47.659 L 160.028 47.659 Z  M 165.364 37.237 C 164.88 37.333 164.413 37.477 163.969 37.661 C 163.511 37.85 163.078 38.082 162.675 38.351 C 162.273 38.62 161.894 38.932 161.544 39.282 C 161.332 39.493 161.135 39.715 160.955 39.945 C 160.769 40.181 160.598 40.428 160.444 40.68 C 160.289 40.934 160.15 41.197 160.028 41.464 C 159.905 41.734 159.797 42.012 159.708 42.295 L 173.941 42.295 C 173.853 42.018 173.744 41.74 173.618 41.462 C 173.498 41.194 173.358 40.933 173.204 40.68 C 173.052 40.43 172.882 40.186 172.697 39.95 C 172.519 39.724 172.332 39.511 172.138 39.312 L 172.104 39.282 C 171.755 38.932 171.375 38.62 170.974 38.351 C 170.573 38.083 170.14 37.851 169.68 37.66 C 169.238 37.476 168.77 37.334 168.284 37.237 C 167.813 37.144 167.325 37.095 166.824 37.095 C 166.323 37.095 165.835 37.144 165.364 37.237 L 165.364 37.237 Z " />
            <path d=" M 250.716 47.659 C 250.838 47.927 250.977 48.189 251.132 48.443 C 251.286 48.696 251.458 48.943 251.644 49.18 C 251.82 49.404 252.005 49.613 252.197 49.807 L 252.233 49.841 C 252.584 50.192 252.964 50.505 253.367 50.774 C 253.77 51.044 254.203 51.275 254.656 51.463 C 255.099 51.647 255.568 51.79 256.055 51.886 C 256.525 51.98 257.013 52.029 257.512 52.029 C 258.012 52.029 258.5 51.98 258.97 51.886 C 259.456 51.79 259.925 51.647 260.368 51.463 C 260.822 51.275 261.254 51.043 261.657 50.774 C 262.064 50.502 262.445 50.189 262.793 49.842 C 262.948 49.685 263.086 49.529 263.232 49.362 C 263.352 49.201 263.544 49.096 263.761 49.096 L 268.919 49.096 C 269.01 49.098 269.103 49.117 269.192 49.158 C 269.522 49.308 269.667 49.698 269.516 50.028 C 269.026 51.104 268.394 52.103 267.646 53.001 C 266.893 53.905 266.021 54.706 265.056 55.38 C 263.968 56.141 262.76 56.741 261.469 57.146 C 260.219 57.538 258.889 57.75 257.512 57.75 C 255.73 57.75 254.027 57.394 252.471 56.75 C 250.873 56.088 249.433 55.121 248.225 53.922 L 248.187 53.887 C 246.974 52.674 245.995 51.221 245.324 49.602 C 244.68 48.047 244.324 46.344 244.324 44.562 C 244.324 40.92 245.801 37.622 248.187 35.237 C 249.404 34.022 250.857 33.043 252.471 32.374 C 254.027 31.73 255.73 31.374 257.512 31.374 C 259.295 31.374 260.998 31.73 262.553 32.374 C 264.167 33.042 265.619 34.021 266.834 35.236 L 266.837 35.239 C 268.052 36.454 269.032 37.907 269.7 39.52 C 270.344 41.076 270.7 42.78 270.7 44.562 C 270.7 44.719 270.695 44.91 270.686 45.13 C 270.677 45.35 270.665 45.539 270.651 45.699 L 270.597 46.195 C 270.584 46.547 270.294 46.828 269.939 46.828 L 250.396 46.828 C 250.485 47.111 250.593 47.389 250.716 47.659 L 250.716 47.659 Z  M 256.052 37.237 C 255.569 37.333 255.102 37.477 254.657 37.661 C 254.199 37.85 253.766 38.082 253.363 38.351 C 252.961 38.62 252.582 38.932 252.232 39.282 C 252.02 39.493 251.823 39.715 251.643 39.945 C 251.457 40.181 251.286 40.428 251.132 40.68 C 250.977 40.934 250.838 41.197 250.716 41.464 C 250.593 41.734 250.485 42.012 250.396 42.295 L 264.629 42.295 C 264.541 42.018 264.433 41.74 264.306 41.462 C 264.186 41.194 264.047 40.933 263.892 40.68 C 263.74 40.43 263.571 40.186 263.385 39.95 C 263.208 39.724 263.021 39.511 262.826 39.312 L 262.793 39.282 C 262.443 38.932 262.064 38.62 261.662 38.351 C 261.261 38.083 260.828 37.851 260.368 37.66 C 259.926 37.476 259.458 37.334 258.972 37.237 C 258.501 37.144 258.013 37.095 257.512 37.095 C 257.012 37.095 256.523 37.144 256.052 37.237 L 256.052 37.237 Z " />
            <path d=" M 189.282 44.562 L 189.282 56.959 C 189.282 57.323 188.987 57.618 188.623 57.618 L 183.309 57.618 C 182.945 57.618 182.65 57.323 182.65 56.959 L 182.65 32.165 C 182.65 31.801 182.945 31.506 183.309 31.506 L 188.623 31.506 C 188.987 31.506 189.282 31.801 189.282 32.165 L 189.282 34.377 C 189.867 33.896 190.493 33.464 191.153 33.088 C 191.803 32.719 192.491 32.401 193.211 32.144 C 193.918 31.89 194.649 31.696 195.396 31.567 C 196.133 31.44 196.891 31.374 197.661 31.374 C 199.444 31.374 201.147 31.73 202.702 32.374 C 204.316 33.042 205.768 34.021 206.983 35.236 L 206.986 35.239 C 208.201 36.454 209.181 37.907 209.849 39.52 C 210.493 41.076 210.849 42.78 210.849 44.562 L 210.849 56.958 C 210.849 57.322 210.554 57.618 210.19 57.618 L 204.876 57.618 C 204.512 57.618 204.216 57.322 204.216 56.958 L 204.216 44.562 C 204.216 44.062 204.167 43.574 204.074 43.104 C 203.977 42.617 203.834 42.149 203.651 41.706 C 203.463 41.252 203.231 40.82 202.962 40.416 C 202.698 40.021 202.396 39.651 202.063 39.313 L 202.029 39.281 C 201.68 38.932 201.301 38.62 200.899 38.351 C 200.498 38.083 200.065 37.851 199.605 37.66 C 199.163 37.476 198.695 37.333 198.209 37.237 C 197.738 37.144 197.25 37.094 196.749 37.094 C 196.249 37.094 195.76 37.144 195.289 37.237 C 194.806 37.333 194.338 37.476 193.894 37.661 C 193.436 37.849 193.003 38.081 192.6 38.35 C 192.198 38.619 191.819 38.932 191.469 39.281 C 191.119 39.631 190.807 40.01 190.538 40.412 C 190.271 40.813 190.039 41.246 189.848 41.706 C 189.664 42.148 189.521 42.615 189.425 43.102 C 189.331 43.572 189.282 44.061 189.282 44.562 L 189.282 44.562 Z " />
            <path d=" M 67.923 44.562 L 67.923 56.959 C 67.923 57.323 67.628 57.618 67.264 57.618 L 61.95 57.618 C 61.586 57.618 61.291 57.323 61.291 56.959 L 61.291 32.165 C 61.291 31.801 61.586 31.506 61.95 31.506 L 67.264 31.506 C 67.628 31.506 67.923 31.801 67.923 32.165 L 67.923 34.377 C 68.508 33.896 69.134 33.464 69.794 33.088 C 70.444 32.719 71.132 32.401 71.852 32.144 C 72.558 31.89 73.29 31.696 74.037 31.567 C 74.774 31.44 75.532 31.374 76.302 31.374 C 78.084 31.374 79.788 31.73 81.343 32.374 C 82.941 33.036 84.382 34.003 85.59 35.201 L 85.628 35.237 C 86.84 36.449 87.82 37.903 88.49 39.521 C 89.135 41.077 89.49 42.78 89.49 44.562 L 89.49 56.959 C 89.49 57.323 89.195 57.618 88.831 57.618 L 83.517 57.618 C 83.153 57.618 82.858 57.323 82.858 56.959 L 82.858 44.562 C 82.858 44.062 82.808 43.575 82.715 43.104 C 82.618 42.618 82.475 42.149 82.292 41.706 C 82.104 41.252 81.872 40.82 81.603 40.417 C 81.339 40.022 81.038 39.652 80.704 39.313 L 80.671 39.282 C 80.321 38.932 79.942 38.62 79.54 38.351 C 79.139 38.083 78.706 37.851 78.246 37.66 C 77.804 37.476 77.337 37.334 76.85 37.237 C 76.38 37.144 75.891 37.095 75.39 37.095 C 74.89 37.095 74.401 37.144 73.93 37.237 C 73.447 37.333 72.98 37.477 72.535 37.661 C 72.077 37.85 71.645 38.081 71.242 38.351 C 70.839 38.62 70.46 38.932 70.11 39.282 C 69.761 39.631 69.448 40.01 69.18 40.412 C 68.912 40.813 68.68 41.246 68.489 41.706 C 68.305 42.148 68.162 42.616 68.066 43.102 C 67.973 43.573 67.923 44.061 67.923 44.562 L 67.923 44.562 Z " />
            <path d=" M 235.713 23.593 L 241.027 23.593 C 241.391 23.593 241.687 23.888 241.687 24.252 L 241.687 56.959 C 241.687 57.323 241.391 57.618 241.027 57.618 L 235.713 57.618 C 235.349 57.618 235.054 57.323 235.054 56.959 L 235.054 54.746 C 234.469 55.228 233.843 55.66 233.184 56.035 C 232.533 56.405 231.845 56.722 231.126 56.98 C 230.419 57.233 229.688 57.428 228.941 57.556 C 228.203 57.683 227.445 57.75 226.675 57.75 C 224.893 57.75 223.19 57.394 221.634 56.75 C 220.036 56.088 218.596 55.121 217.388 53.922 L 217.35 53.887 C 216.137 52.674 215.157 51.221 214.487 49.602 C 213.843 48.047 213.487 46.344 213.487 44.562 C 213.487 40.92 214.964 37.622 217.35 35.237 C 218.566 34.022 220.02 33.043 221.634 32.374 C 223.19 31.73 224.893 31.374 226.675 31.374 C 227.445 31.374 228.203 31.44 228.941 31.567 C 229.688 31.696 230.419 31.89 231.126 32.144 C 231.845 32.401 232.533 32.719 233.184 33.088 C 233.843 33.464 234.469 33.896 235.054 34.377 L 235.054 24.252 C 235.054 23.888 235.349 23.593 235.713 23.593 L 235.713 23.593 Z  M 220.262 43.104 C 220.169 43.575 220.12 44.062 220.12 44.562 C 220.12 45.061 220.169 45.549 220.262 46.019 C 220.359 46.506 220.502 46.975 220.685 47.418 C 220.873 47.871 221.105 48.303 221.374 48.707 C 221.638 49.102 221.94 49.472 222.273 49.811 L 222.307 49.842 C 222.656 50.192 223.035 50.504 223.437 50.773 C 223.838 51.04 224.271 51.272 224.731 51.463 C 225.173 51.647 225.641 51.79 226.127 51.886 C 226.598 51.98 227.086 52.029 227.587 52.029 C 228.087 52.029 228.576 51.98 229.047 51.886 C 229.53 51.79 229.998 51.647 230.442 51.462 C 230.9 51.274 231.333 51.042 231.736 50.773 C 232.138 50.504 232.517 50.192 232.867 49.842 C 233.217 49.492 233.529 49.113 233.798 48.711 C 234.065 48.311 234.297 47.877 234.488 47.418 C 234.672 46.976 234.815 46.508 234.911 46.021 C 235.005 45.551 235.054 45.062 235.054 44.562 C 235.054 44.061 235.005 43.572 234.911 43.101 C 234.815 42.618 234.672 42.151 234.487 41.706 C 234.299 41.249 234.067 40.816 233.798 40.413 C 233.529 40.011 233.217 39.631 232.867 39.282 C 232.517 38.932 232.138 38.62 231.736 38.351 C 231.336 38.083 230.902 37.851 230.443 37.66 C 230.001 37.476 229.533 37.334 229.046 37.237 C 228.576 37.144 228.087 37.095 227.587 37.095 C 227.086 37.095 226.597 37.144 226.126 37.237 C 225.643 37.333 225.176 37.477 224.731 37.661 C 224.273 37.85 223.84 38.082 223.437 38.352 C 223.043 38.615 222.676 38.915 222.341 39.247 L 222.308 39.283 C 221.957 39.634 221.644 40.014 221.375 40.416 C 221.105 40.82 220.873 41.252 220.685 41.706 C 220.502 42.149 220.359 42.618 220.262 43.104 L 220.262 43.104 Z " />
            <path d=" M 134.436 57.237 L 122.881 32.456 C 122.838 32.369 122.813 32.27 122.813 32.165 C 122.813 31.801 123.109 31.506 123.473 31.506 L 129.336 31.506 C 129.584 31.506 129.822 31.647 129.934 31.887 L 138.564 50.395 L 147.188 31.9 C 147.29 31.668 147.523 31.506 147.792 31.506 L 153.656 31.506 C 153.749 31.506 153.844 31.525 153.934 31.567 C 154.264 31.721 154.407 32.113 154.254 32.443 L 142.699 57.223 C 142.597 57.455 142.365 57.618 142.095 57.618 L 135.034 57.618 C 134.786 57.618 134.548 57.477 134.436 57.237 L 134.436 57.237 Z " />
            <path d=" M 113.695 44.496 L 113.695 32.099 C 113.695 31.735 113.99 31.44 114.354 31.44 L 119.668 31.44 C 120.032 31.44 120.328 31.735 120.328 32.099 L 120.328 56.893 C 120.328 57.257 120.032 57.552 119.668 57.552 L 114.354 57.552 C 113.99 57.552 113.695 57.257 113.695 56.893 L 113.695 54.68 C 113.11 55.162 112.484 55.594 111.824 55.969 C 111.174 56.339 110.486 56.656 109.767 56.914 C 109.06 57.167 108.329 57.362 107.582 57.49 C 106.844 57.617 106.086 57.684 105.316 57.684 C 103.534 57.684 101.831 57.328 100.275 56.684 C 98.661 56.015 97.209 55.036 95.994 53.822 L 95.991 53.819 C 94.776 52.604 93.797 51.151 93.128 49.537 C 92.484 47.981 92.128 46.278 92.128 44.496 L 92.128 32.099 C 92.128 31.735 92.424 31.44 92.788 31.44 L 98.102 31.44 C 98.466 31.44 98.761 31.735 98.761 32.099 L 98.761 44.496 C 98.761 44.996 98.81 45.483 98.903 45.953 C 99 46.44 99.143 46.909 99.326 47.352 C 99.514 47.806 99.746 48.238 100.015 48.641 C 100.279 49.036 100.581 49.406 100.914 49.745 L 100.948 49.776 C 101.298 50.126 101.677 50.438 102.079 50.707 C 102.479 50.975 102.913 51.207 103.372 51.398 C 103.814 51.582 104.282 51.724 104.768 51.821 C 105.239 51.914 105.727 51.963 106.228 51.963 C 106.729 51.963 107.217 51.914 107.689 51.82 C 108.172 51.724 108.639 51.581 109.083 51.397 C 109.541 51.208 109.974 50.976 110.377 50.707 C 110.779 50.438 111.159 50.126 111.508 49.776 C 111.858 49.427 112.17 49.048 112.439 48.646 C 112.707 48.245 112.939 47.812 113.13 47.352 C 113.313 46.91 113.456 46.442 113.553 45.956 C 113.646 45.485 113.695 44.997 113.695 44.496 L 113.695 44.496 Z " />
        </g>
    </g>
</svg>
